# xmcd CD database file
#
# Track frame offsets:
#	150
#	20363
#	32817
#	48630
#	63820
#	91420
#	108825
#	124584
#	143546
#	165219
#	187448
#
# Disc length: 2817 seconds
#
# Revision: 1
# Processed by: cddbd v1.5.2PL0 Copyright (c) Steve Scherf et al.
# Submitted via: CDex 1.70beta2
#
DISCID=8a0aff0b
DTITLE=Various Artist - Jazz Temptation - Les Nouvelles Voix du Jazz
DYEAR=2015
DGENRE=Jazz
TTITLE0=Diana Krall - Temptation
TTITLE1=Melody Gardot - Your Heart Is As Black As Night
TTITLE2=Indra Rios-Moore - Little Black Train
TTITLE3=Gregory Porter - Hey Laura
TTITLE4=Cassandra Wilson - You Don't Know What Love Is
TTITLE5=Nikki Yanofsky - Bienvenue dans ma vie
TTITLE6=Kellylee Evans - Hands Up
TTITLE7=José James ft. Emily King - Heaven on the Ground
TTITLE8=Jacky Terrasson ft. Cécile McLorin-Salvant - Oh My Love
TTITLE9=Lizz Wright - I Idolize You
TTITLE10=Melanie De Biasio - The Flow
EXTD=YEAR: 2015
EXTT0=
EXTT1=
EXTT2=
EXTT3=
EXTT4=
EXTT5=
EXTT6=
EXTT7=
EXTT8=
EXTT9=
EXTT10=
PLAYORDER=
